<?xml version="1.0" standalone="no"?>
<!DOCTYPE svg PUBLIC "-//W3C//DTD SVG 1.1//EN" "http://www.w3.org/Graphics/SVG/1.1/DTD/svg11.dtd" >
<!--
2013-9-30: Created.
-->
<svg>
<metadata>
Created by iconfont
</metadata>
<defs>

<font id="iconfont" horiz-adv-x="1024" >
  <font-face
    font-family="iconfont"
    font-weight="500"
    font-stretch="normal"
    units-per-em="1024"
    ascent="896"
    descent="-128"
  />
    <missing-glyph />
    
    <glyph glyph-name="x" unicode="x" horiz-adv-x="1001"
d="M281 543q-27 -1 -53 -1h-83q-18 0 -36.5 -6t-32.5 -18.5t-23 -32t-9 -45.5v-76h912v41q0 16 -0.5 30t-0.5 18q0 13 -5 29t-17 29.5t-31.5 22.5t-49.5 9h-133v-97h-438v97zM955 310v-52q0 -23 0.5 -52t0.5 -58t-10.5 -47.5t-26 -30t-33 -16t-31.5 -4.5q-14 -1 -29.5 -0.5
t-29.5 0.5h-32l-45 128h-439l-44 -128h-29h-34q-20 0 -45 1q-25 0 -41 9.5t-25.5 23t-13.5 29.5t-4 30v167h911zM163 247q-12 0 -21 -8.5t-9 -21.5t9 -21.5t21 -8.5q13 0 22 8.5t9 21.5t-9 21.5t-22 8.5zM316 123q-8 -26 -14 -48q-5 -19 -10.5 -37t-7.5 -25t-3 -15t1 -14.5
t9.5 -10.5t21.5 -4h37h67h81h80h64h36q23 0 34 12t2 38q-5 13 -9.5 30.5t-9.5 34.5q-5 19 -11 39h-368zM336 498v228q0 11 2.5 23t10 21.5t20.5 15.5t34 6h188q31 0 51.5 -14.5t20.5 -52.5v-227h-327z" />
    

    
    <glyph glyph-name="button_add" unicode="&#59135;" d="M884.363636-128H139.636364a139.636364 139.636364 0 0 0-139.636364 139.636364V756.363636a139.636364 139.636364 0 0 0 139.636364 139.636364h744.727272a139.636364 139.636364 0 0 0 139.636364-139.636364v-744.727272a139.636364 139.636364 0 0 0-139.636364-139.636364z m-93.090909 558.545455h-232.727272V663.272727a46.545455 46.545455 0 0 1-93.09091 0v-232.727272H232.727273a46.545455 46.545455 0 0 1 0-93.09091h232.727272v-232.727272a46.545455 46.545455 0 0 1 93.09091 0v232.727272h232.727272a46.545455 46.545455 0 0 1 0 93.09091z"  horiz-adv-x="1024" />

    
    <glyph glyph-name="delete" unicode="&#59136;" d="M142.222222 668.444444a63.886222 63.886222 0 0 0 56.888889 56.888889h227.555556V782.222222a48.64 48.64 0 0 0 38.115555 56.888889h94.435556a49.436444 49.436444 0 0 0 38.115555-56.888889v-56.888889h227.555556a64.056889 64.056889 0 0 0 56.888889-56.888889v-56.888888h-739.555556V668.444444z m680.96-112.64L824.888889-14.222222a63.886222 63.886222 0 0 0-56.888889-56.888889h-512a64.056889 64.056889 0 0 0-56.888889 56.888889V554.666667h625.777778zM369.777778 384c2.844444 23.665778 18.204444 65.934222-51.2 55.978667-23.324444-3.299556-5.688889-25.827556-5.688889-55.978667v-284.444444a156.216889 156.216889 0 0 1 0-56.888889c60.871111 0.967111 56.888889 26.737778 56.888889 56.888889V384z m170.666666 0a144.327111 144.327111 0 0 1 0 56.888889c-63.146667 5.176889-56.888889-26.737778-56.888888-56.888889v-284.444444c0-24.120889-5.12-56.888889 56.888888-56.888889a161.109333 161.109333 0 0 1 0 56.888889V384z m170.666667 0c0 24.120889 1.137778 56.888889 0 56.888889-62.577778-3.527111-56.888889-26.737778-56.888889-56.888889v-284.444444c0-24.120889-9.102222-58.254222 56.888889-56.888889a125.155556 125.155556 0 0 1 0 56.888889V384z m0 0"  horiz-adv-x="1024" />

    
    <glyph glyph-name="ck" unicode="&#59137;" d="M885.12 57.6a189.504 189.504 0 0 1 15.936 74.688A262.4 262.4 0 0 1 640 384c-124.416 0-189.44-138.368-189.44-251.968a216.128 216.128 0 0 1 225.216-205.696 235.456 235.456 0 0 1 142.72 47.808L950.592-128l72.704 78.528z m-209.28-28.16A115.2 115.2 0 0 0 576 79.872a95.232 95.232 0 0 0 0 104.192 115.2 115.2 0 0 0 99.52 50.816 103.104 103.104 0 1 0 0-205.696zM384 128c0 142.016 100.608 320 256 320h128V768c0 56.832-30.08 127.168-92.224 127.168h-563.2A107.968 107.968 0 0 1 0 792.32v-763.136C0-27.584 65.536-64 128-64h384a242.176 242.176 0 0 0-128 192zM128 768h512c-0.96 6.016 0-49.792 0-64s-0.96 8 0 0H128m0-128h320a268.8 268.8 0 0 1 0-64c0-14.208 31.04 0 0 0H128m0-128h192a267.392 267.392 0 0 1 0-64c0-14.144 19.2 1.984 0 0l-38.4-3.072L128 320"  horiz-adv-x="1024" />

    
    <glyph glyph-name="fwjl" unicode="&#59138;" d="M983.311258 380.609272l-33.907284-40.688742-305.165563 305.165563-230.569537-230.569537-47.470199 40.688742-27.125827 27.125828 33.907284 33.907285 230.569537 230.569536 40.688742 40.688742 47.470198-40.688742 298.384106-305.165563 27.125828-27.125828-33.907285-33.907284zM291.602649 482.331126l230.569536-230.569537 6.781457-6.781457-40.688741-33.907284-40.688742-40.688742-237.350993 244.13245-40.688742 40.688742-27.125828 27.125828 33.907285 33.907285 33.907285 40.688741L508.609272 862.092715l40.688741-40.688741 33.907285-33.907285-27.125828-33.907285-264.476821-271.258278z m-149.192053-54.251656l298.384106-305.165563L671.364238 353.483444l40.688742-40.688742 27.125828-27.125828-33.907285-33.907285L474.701987 14.410596l-40.688742-40.688742-40.688742 40.688742-291.602649 311.94702L67.81457 353.483444l33.907284 33.907284 40.688742 40.688742zM806.993377 285.668874l-203.443708 196.662252-33.907285 33.907285 33.907285 33.907284 47.470199 40.688742L874.807947 353.483444l40.688742-40.688742 33.907285-27.125828-33.907285-33.907285-40.688742-40.688741-298.384106-305.165563-40.688742 40.688741-33.907284 33.907285 33.907284 33.907285 271.258278 271.258278z"  horiz-adv-x="1085" />

    
    <glyph glyph-name="close" unicode="&#59139;" d="M32.365204-95.744363a110.587245 110.587245 0 0 1 77.820654-32.254613 108.84652 108.84652 0 0 1 77.820654 32.254613l323.570086 324.798834 323.570087-324.798834a110.075267 110.075267 0 0 1 155.641307 155.743703L667.217905 384.798174 990.787992 709.597007A110.075267 110.075267 0 0 1 835.146685 865.34071L511.576598 540.541877 188.006512 865.34071A110.075267 110.075267 0 0 1 32.365204 709.597007l323.570087-324.798833L32.365204 59.99934a110.177662 110.177662 0 0 1 0-155.743703z"  horiz-adv-x="1024" />

    
    <glyph glyph-name="jcfu" unicode="&#59140;" d="M571.2 194.944l60.544-60.864a53.888 53.888 0 0 1 73.344 0 54.464 54.464 0 0 1 0 73.664l-60.544 60.864 60.544 60.8s-232.704 99.264-242.304 102.4a28.672 28.672 0 0 1-15.936 3.2 43.648 43.648 0 0 1-44.8-44.8 29.056 29.056 0 0 1 3.2-16.064c3.2-9.6 102.016-243.2 102.016-243.2z m-570.688-204.8a85.888 85.888 0 0 1 86.08-86.4h851.2A85.888 85.888 0 0 1 1024-9.984V777.664A90.816 90.816 0 0 1 934.4 864H86.592A85.888 85.888 0 0 1 0.512 777.6v-787.648zM128 544h768c25.6 0 0 25.6 0 0v-512c0-25.6 25.6 0 0 0H128c-25.6 0 0-25.6 0 0v512c0 25.6-25.6-64 0-64v64zM105.728 704a54.208 54.208 0 1 0 54.208-54.4 56 56 0 0 0-54.208 54.4z m191.296 0a54.208 54.208 0 1 0 54.208-54.4 56 56 0 0 0-54.208 54.4zM488.32 704a54.208 54.208 0 1 0 54.208-54.4A56 56 0 0 0 488.32 704z m0 0"  horiz-adv-x="1024" />

    
    <glyph glyph-name="jmgl" unicode="&#59141;" d="M826.176 768H197.824A62.336 62.336 0 0 1 128 698.176v-488.704A67.776 67.776 0 0 1 192 128h256v-64H320c-69.248 0-64.896-64 0-64h384c68.352 0 64 64 0 64H576v64h256a67.392 67.392 0 0 1 64 81.472V687.04A71.232 71.232 0 0 1 826.176 768zM832 384h-128l-128-128-201.088 270.784L320 384H192V448h64l101.12 219.392L576 384l64 64h192v-64z"  horiz-adv-x="1024" />

    
    <glyph glyph-name="jd" unicode="&#59142;" d="M978.766228 584.916682a509.495136 509.495136 0 0 1-938.409778 0 501.418007 501.418007 0 0 1-40.322047-197.985066 509.240738 509.240738 0 1 1 1018.417877 0 501.03641 501.03641 0 0 1-39.749651 197.985066zM700.00987 386.55002a63.599443 63.599443 0 0 0 0-127.198886H445.612099a63.599443 63.599443 0 0 0-63.599442 63.599443l-1.844384 315.326037a63.599443 63.599443 0 1 0 127.198885 0L509.211542 386.55002h190.798328z m0 0"  horiz-adv-x="1024" />

    
    <glyph glyph-name="jy" unicode="&#59143;" d="M711.111111-71.111111a256 256 0 1 0 256 256 256 256 0 0 0-256-256z m142.222222 284.444444h-284.444444v-56.888889h284.444444v56.888889z m-455.111111-28.444444A311.125333 311.125333 0 0 1 471.608889-14.222222H170.666667a113.777778 113.777778 0 0 0-113.777778 113.777778V725.333333a113.777778 113.777778 0 0 0 113.777778 113.777778h512a113.777778 113.777778 0 0 0 113.777777-113.777778v-240.810666A308.679111 308.679111 0 0 1 398.222222 184.888889zM170.666667 270.222222h170.666666v56.888889H170.666667v-56.888889z m0 170.666667h284.444444V497.777778H170.666667v-56.888889z m512 227.555555H170.666667v-56.888888h512V668.444444z"  horiz-adv-x="1024" />

    
    <glyph glyph-name="menu" unicode="&#59144;" d="M0 725.333333h1024v-113.777777H0V725.333333z m0-284.444444h1024v-113.777778H0V440.888889z m0-284.444445h1024v-113.777777H0v113.777777z"  horiz-adv-x="1024" />

    
    <glyph glyph-name="jygl" unicode="&#59145;" d="M864 608h-192v64a67.584 67.584 0 0 1-55.936 64h-208a67.712 67.712 0 0 1-56.064-64v-64h-192c-57.216 0-64-7.68-64-64v-448c0-56.32 6.784-64 64-64h704c57.28 0 64 7.68 64 64v448c0 56.32-6.784 64-64 64m-448 64h192v-64h-192v64m256-384h-128v-128h-64v128h-128v64h128v128h64v-128h128v-64"  horiz-adv-x="1024" />

    
    <glyph glyph-name="kl" unicode="&#59146;" d="M320.64 64V896h448v-256h256v-576H320.64z m640 512H384.64v-64h576V576z m0-128H384.64v-64h576V448z m0-128H384.64v-64h576V320z m0-128H384.64v-64h576v64zM833.024 896h21.632l170.56-160.768V704h-192V896zM288.64 0.64H704.64v-128H0.064L0.64 704h256v-256H64.64v-64h192v-64H64.64v-64h192v-64H64.64v-64h192v-64H64.64v-64z m0 0"  horiz-adv-x="1025" />

    
    <glyph glyph-name="mr" unicode="&#59147;" d="M512 896a512 512 0 1 0-512-512 512 512 0 0 0 512 512z m359.168-460.032L580.16 739.136A92.864 92.864 0 0 1 512 768a93.952 93.952 0 0 1-68.416-28.864L152.512 435.968a64 64 0 0 1-21.184-69.632A79.04 79.04 0 0 1 192 320h64v-256c0-52.928 73.984-64 128-64h-19.2H448V320h128v-320h131.84c54.016 0 60.16 10.816 60.16 64V320h64a79.04 79.04 0 0 1 60.416 46.336 64 64 0 0 1-21.248 69.632z"  horiz-adv-x="1024" />

    
    <glyph glyph-name="qy" unicode="&#59148;" d="M512.064-128a512 512 0 1 0 512 512 512 512 0 0 0-512-512z m0 877.312a365.568 365.568 0 1 1 365.568-365.568 365.504 365.504 0 0 1-365.568 365.568z m271.68-266.24l-281.216-282.368a71.168 71.168 0 0 0-123.456-3.968L238.848 335.936a70.4 70.4 0 0 0 0 100.288 71.808 71.808 0 0 0 101.056 0l99.584-98.816L684.48 582.4a70.4 70.4 0 0 0 99.328-99.328z m0 0"  horiz-adv-x="1024" />

    
    <glyph glyph-name="sc" unicode="&#59149;" d="M160 0a125.632 125.632 0 0 1 114.688-128h475.712a125.056 125.056 0 0 1 113.6 128V640h-704v-640z m576 512v-448c1.664 7.296 23.552 0 0 0s-59.648 1.28-64 0V512m-128 0v-448a470.72 470.72 0 0 0-64 0c-23.616 0 0.32-22.72 0 0V512m-128 0v-448a257.472 257.472 0 0 0-64 0V512M701.44 837.312l-23.296 42.24a55.168 55.168 0 0 1-38.4 15.616H387.008a55.04 55.04 0 0 1-38.016-15.04l-14.784-42.816H150.592a53.056 53.056 0 0 1-54.016-52.032L96 704h832l0.576 81.28a53.056 53.056 0 0 1-54.016 52.032h-172.8z"  horiz-adv-x="1024" />

    
    <glyph glyph-name="sp" unicode="&#59150;" d="M796.444444-71.111111H227.555556a114.119111 114.119111 0 0 0-113.777778 113.777778V725.333333h113.777778v-682.666666h568.888888V725.333333h113.777778v-682.666666a114.119111 114.119111 0 0 0-113.777778-113.777778zM272.497778 343.779556l52.337778 51.996444L455.111111 293.774222l244.053333 215.779556 52.337778-51.996445L455.111111 132.892444zM284.444444 725.333333h113.777778V782.222222a56.888889 56.888889 0 0 0 56.888889 56.888889h113.777778a56.888889 56.888889 0 0 0 56.888889-56.888889v-56.888889h113.777778v-113.777777H284.444444V725.333333z m170.666667 0h113.777778V782.222222H455.111111v-56.888889z"  horiz-adv-x="1024" />

    
    <glyph glyph-name="search" unicode="&#59151;" d="M1007.72484 16.16042a53.093782 53.093782 0 0 0 4.26342-73.558195l-49.683047-56.049754a56.106599 56.106599 0 0 0-76.173093 1.591677l-203.450372 206.861107a48.546135 48.546135 0 0 0-2.955971 4.433957 435.721459 435.721459 0 1 0 121.024265 123.298088c0.568456-0.51161 1.364294-0.682147 1.93275-1.250603zM438.188859 791.875362a332.0351 332.0351 0 1 1 331.694026-332.0351 331.864563 331.864563 0 0 1-331.694026 332.0351z"  horiz-adv-x="1030" />

    
    <glyph glyph-name="fq" unicode="&#59152;" d="M985.956874-67.40205l-26.401968-26.274113a19.178185 19.178185 0 0 0-26.401967 0l-149.206278 148.183441-149.334133-148.247369a19.178185 19.178185 0 0 0-26.401968 0l-26.401967 26.210186a18.602839 18.602839 0 0 0 0 26.274113l149.270205 148.247369-140.640022 139.617186a18.538912 18.538912 0 0 0 0 26.210185l26.401968 26.210186a18.602839 18.602839 0 0 0 26.274113 0l140.640022-139.617185 140.640022 139.74504a19.178185 19.178185 0 0 0 26.401968 0l26.401967-26.401968a18.538912 18.538912 0 0 0 0-26.210186l-140.640022-139.617185 149.206278-148.119514a18.538912 18.538912 0 0 0 0.191782-26.210186z m-533.792811 156.877552a262.932914 262.932914 0 0 1 121.461838-217.352762h-420.641521a114.621618 114.621618 0 0 0-119.7358 108.676381V787.177865a114.557691 114.557691 0 0 0 119.7358 108.676381h598.615076A125.425329 125.425329 0 0 0 863.600055 767.232553v-447.490979a305.892048 305.892048 0 0 1-112.128454 41.488806A286.586008 286.586008 0 0 1 452.227991 89.603356zM480.036359 511.523422c0 15.022911-0.958909 59.963791 0 63.927283h-319.636414a426.203194 426.203194 0 0 1 0-63.927283h319.636414c-0.958909 0 0-15.022911 0 0z m-127.854566-191.781848a450.495561 450.495561 0 0 0 0 63.927283h-191.781848c-1.022837-3.963492 0-48.840444 0-63.927283h191.781848z m383.563697 447.490979h-575.345545c0-15.022911-1.022837-63.927283 0-63.927283h575.345545c0 15.022911-0.958909 63.927283 0 63.927283z"  horiz-adv-x="1024" />

    
    <glyph glyph-name="tdgl" unicode="&#59153;" d="M832 65.984v64H192v-64H128v-64h768v64h-64z m-512 128v256H128v-64h64v-192h128z m512 0v192h64v64h-192v-256h128z m-256 0v256H448v-256h128z m286.336 393.152l-322.368 173.44a59.2 59.2 0 0 1-56.064 0L161.6 587.072a63.04 63.04 0 0 1-33.664-55.552v-17.536H896v17.536a63.296 63.296 0 0 1-33.664 55.616zM640 641.984c-0.768-3.008 0-64 0-64H384v64h256z m0 0"  horiz-adv-x="1024" />

    
    <glyph glyph-name="tjfwjl" unicode="&#59154;" d="M898.498078 391.621926a323.530726 323.530726 0 0 1-397.685171 37.780411 298.407712 298.407712 0 0 1-115.962208-369.237992 317.649512 317.649512 0 0 1 352.553241-181.870167 306.845976 306.845976 0 0 1 253.531488 298.215933 296.74563 296.74563 0 0 1-92.373424 215.111815zM799.668103 128.885059h-191.778735V320.663794h63.926245v-127.85249h127.85249v-63.926245z m-123.889063 477.848682A434.187057 434.187057 0 0 0 799.668103 576.368775V640.29502a109.953142 109.953142 0 0 1-10.100347 60.154596L595.040192 878.80384a44.300888 44.300888 0 0 1-34.328393 16.429045H117.894699A86.172578 86.172578 0 0 1 33.25635 799.727075v-743.398304A53.953751 53.953751 0 0 1 96.479407 1.032569h191.778735a384.708143 384.708143 0 0 0-58.108957 175.541469 438.21441 438.21441 0 0 0 445.693781 430.159703z m81.186331 45.068003l-178.290297 1.470303a39.698198 39.698198 0 0 0-40.081756 39.058936V854.064383z m0 0"  horiz-adv-x="1024" />

    
    <glyph glyph-name="time" unicode="&#59155;" d="M28.712937-71.142699a57.369017 57.369017 0 0 1 56.857302-56.857301h852.859522a57.482732 57.482732 0 0 1 56.857302 56.857301V497.430316H28.712937v-568.573015z m761.319267 398.001111h71.01477a27.689506 27.689506 0 1 0 0-55.379012H790.032204a27.689506 27.689506 0 1 0 0 55.379012z m-208.723153 0h71.071626a27.689506 27.689506 0 1 0 0-55.379012h-71.071626a27.689506 27.689506 0 1 0 0 55.379012zM372.131038 326.858412h71.071627a27.689506 27.689506 0 1 0 0-55.379012H372.131038a27.689506 27.689506 0 1 0 0 55.379012z m-209.178012 0h71.071627a27.689506 27.689506 0 1 0 0-55.379012h-71.071627a27.689506 27.689506 0 1 0 0 55.379012zM938.429761 724.859522h-227.429206V838.574125a105.868295 105.868295 0 0 1-58.278734 57.482732 100.978567 100.978567 0 0 1-57.198445-55.720155L593.703942 724.859522l1.819434-3.525152L428.476624 724.859522 426.714048 726.622099l1.762576 110.18945A108.654303 108.654303 0 0 1 369.856746 895.431427a102.343143 102.343143 0 0 1-56.857301-56.857302v-113.714603h-227.429206a57.369017 57.369017 0 0 1-56.857302-56.857301v-113.714603h966.574126V668.002221a57.482732 57.482732 0 0 1-56.857302 56.857301z m-148.397557-568.573015h71.01477a27.689506 27.689506 0 1 0 0-55.379011H790.032204a27.689506 27.689506 0 1 0 0 55.379011z m-208.723153 0h71.071626a27.689506 27.689506 0 1 0 0-55.379011h-71.071626a27.689506 27.689506 0 1 0 0 55.379011zM372.131038 156.286507h71.071627a27.689506 27.689506 0 1 0 0-55.379011H372.131038a27.689506 27.689506 0 1 0 0 55.379011z m-209.178012 0h71.071627a27.689506 27.689506 0 1 0 0-55.379011h-71.071627a27.689506 27.689506 0 1 0 0 55.379011z"  horiz-adv-x="1024" />

    
    <glyph glyph-name="jcsz" unicode="&#59156;" d="M915.2 309.312a44.8 44.8 0 0 1 44.8 44.8v59.712a44.8 44.8 0 0 1-44.8 44.8h-30.912a61.184 61.184 0 0 0-56.448 36.224 142.656 142.656 0 0 0 0 99.52l21.952 21.888a44.8 44.8 0 0 1 0 63.424l-42.176 42.176a44.8 44.8 0 0 1-63.36 0l-22.016-22.016a60.544 60.544 0 0 0-64.96-14.272 145.408 145.408 0 0 0-70.4 70.4V787.2a44.8 44.8 0 0 1-44.8 44.8h-59.84a44.8 44.8 0 0 1-44.8-44.8v-30.976a61.12 61.12 0 0 0-36.224-56.448 142.656 142.656 0 0 0-99.392 0l-22.08 22.016a44.8 44.8 0 0 1-63.36 0l-42.176-42.176a44.8 44.8 0 0 1 0-63.424l21.888-21.952a60.48 60.48 0 0 0 14.4-64.96 145.856 145.856 0 0 0-70.784-70.72H108.8a44.8 44.8 0 0 1-44.8-44.8v-59.776a44.8 44.8 0 0 1 44.8-44.8h30.976a61.056 61.056 0 0 0 56.448-36.16 142.592 142.592 0 0 0 0-99.456l-22.016-21.952a44.8 44.8 0 0 1 0-63.36l42.24-42.24a44.8 44.8 0 0 1 63.36 0l22.016 21.952a60.672 60.672 0 0 0 64.96 14.336 145.472 145.472 0 0 0 70.4-70.4v-31.104a44.8 44.8 0 0 1 44.8-44.8h59.712a44.8 44.8 0 0 1 44.8 44.8v30.912a61.12 61.12 0 0 0 36.288 56.448 142.848 142.848 0 0 0 99.456 0l22.016-21.888a44.8 44.8 0 0 1 63.36 0l42.24 42.112a44.8 44.8 0 0 1 0 63.36l-21.952 22.016a60.288 60.288 0 0 0-14.4 64.896 145.408 145.408 0 0 0 70.4 70.784h31.296zM512 189.824A194.176 194.176 0 1 0 706.24 384 194.24 194.24 0 0 0 512 189.824"  horiz-adv-x="1024" />

    
    <glyph glyph-name="ws" unicode="&#59157;" d="M682.666667 611.555556a63.032889 63.032889 0 0 0-56.888889 56.888888V839.111111l227.555555-227.555555h-170.666666z m0-56.888889h170.666666v-512a125.610667 125.610667 0 0 0-113.777777-113.777778H284.444444a125.610667 125.610667 0 0 0-113.777777 113.777778V725.333333a125.610667 125.610667 0 0 0 113.777777 113.777778h284.444445v-170.666667a125.610667 125.610667 0 0 1 113.777778-113.777777z m-398.222223-512h284.444445v56.888889H284.444444v-56.888889z m0 170.666666h455.111112v56.888889H284.444444v-56.888889z m0 227.555556v-56.888889h455.111112V440.888889H284.444444z m0 0"  horiz-adv-x="1024" />

    
    <glyph glyph-name="xg" unicode="&#59158;" d="M227.555556 122.652444v170.666667l170.666666-170.666667H227.555556z m227.555555 56.888889l-170.666667 170.666667 341.333334 341.333333 170.666666-170.666666z m398.222222 398.222223l-170.666666 170.666666 56.888889 56.888889a38.798222 38.798222 0 0 0 56.888888 0l113.777778-113.777778a38.855111 38.855111 0 0 0 0-56.888889z m71.111111-625.777778H99.555556a57.457778 57.457778 0 0 0-42.666667 56.888889 71.281778 71.281778 0 0 0 56.888889 56.888889h796.444444a71.281778 71.281778 0 0 0 56.888889-56.888889 57.457778 57.457778 0 0 0-42.666667-56.888889z m0 0"  horiz-adv-x="1024" />

    
    <glyph glyph-name="ty" unicode="&#59159;" d="M967.111111 384a455.111111 455.111111 0 0 0-455.111111-455.111111 450.048 450.048 0 0 0-262.826667 84.821333l-5.12-5.176889-54.044444 53.646223-53.475556 53.589333 5.12 5.176889A450.218667 450.218667 0 0 0 56.888889 384a455.111111 455.111111 0 0 0 455.111111 455.111111 449.422222 449.422222 0 0 0 262.826667-84.821333l5.12 5.176889 107.52-107.235556-5.12-5.176889A450.218667 450.218667 0 0 0 967.111111 384z m-453.404444-338.887111a337.578667 337.578667 0 0 1 337.351111 337.123555 423.879111 423.879111 0 0 1-51.2 191.544889l-477.866667-470.300444a428.828444 428.828444 0 0 1 191.715556-58.368z m0 674.247111a336.952889 336.952889 0 0 1-336.782223-337.123556 467.285333 467.285333 0 0 1 68.835556-198.712888l473.884444 473.884444a491.235556 491.235556 0 0 1-205.937777 61.952z m0 0"  horiz-adv-x="1024" />

    
    <glyph glyph-name="xy" unicode="&#59160;" d="M711.111111-71.111111a256 256 0 1 0 256 256 256 256 0 0 0-256-256z m142.222222 284.444444h-113.777777v113.777778h-56.888889v-113.777778h-113.777778v-56.888889h113.777778v-113.777777h56.888889v113.777777h113.777777v56.888889z m-455.111111-28.444444A311.125333 311.125333 0 0 1 471.608889-14.222222H170.666667a113.777778 113.777778 0 0 0-113.777778 113.777778V725.333333a113.777778 113.777778 0 0 0 113.777778 113.777778h512a113.777778 113.777778 0 0 0 113.777777-113.777778v-240.810666A308.679111 308.679111 0 0 1 398.222222 184.888889zM170.666667 270.222222h170.666666v56.888889H170.666667v-56.888889z m0 170.666667h284.444444V497.777778H170.666667v-56.888889z m512 227.555555H170.666667v-56.888888h512V668.444444z"  horiz-adv-x="1024" />

    
    <glyph glyph-name="xygl" unicode="&#59161;" d="M575.36 104L367.36 289.984l67.328 68.032 138.688-124.032 192.64 182.016c4.352 3.904-5.504-0.832 0 0H928a391.68 391.68 0 0 1-416 384 391.68 391.68 0 0 1-416-384h138.688l208 192 208-192-69.312-64-138.688 128-138.688-128H96a392.96 392.96 0 0 1 416-384 392.96 392.96 0 0 1 416 384l-90.688 1.984z"  horiz-adv-x="1024" />

    
    <glyph glyph-name="jggl" unicode="&#59162;" d="M384 451.008H192a73.216 73.216 0 0 0-64 64V716.992a53.888 53.888 0 0 0 53.44 54.016h220.032a58.176 58.176 0 0 0 46.528-64v-192a73.216 73.216 0 0 0-64-64z m35.008-453.888H181.44A53.888 53.888 0 0 0 128 51.136V291.008c0 29.696 25.6 37.568 54.72 37.568h218.816a56.064 56.064 0 0 0 54.72-55.232v-221.12c0-29.696-7.808-55.296-37.248-55.296z m421.376 0H602.816c-29.376 0-37.248 25.6-37.248 55.296V273.536a56.064 56.064 0 0 0 54.72 55.232h218.816a56.064 56.064 0 0 0 54.72-55.232v-221.12a55.04 55.04 0 0 0-53.44-55.296zM832 451.008h-192a68.352 68.352 0 0 0-74.368 43.648V715.712c0 29.696 7.808 55.296 37.248 55.296h237.568a53.888 53.888 0 0 0 53.44-54.016L896 515.008a73.216 73.216 0 0 0-64-64z"  horiz-adv-x="1024" />

    
    <glyph glyph-name="zzzj" unicode="&#59163;" d="M816.924444 127.146667l137.102223-131.925334a44.600889 44.600889 0 0 0-8.533334-51.2 33.28 33.28 0 0 0-43.804444-3.527111l-137.102222 137.216-131.982223-137.216a34.474667 34.474667 0 0 0-43.804444 8.874667 37.717333 37.717333 0 0 0-10.808889 45.511111l130.275556 135.452444-133.688889 137.216a40.675556 40.675556 0 0 0 3.413333 49.152 41.244444 41.244444 0 0 0 48.924445 7.111112l135.395555-146.147556 139.377778 137.272889a45.511111 45.511111 0 0 0 52.337778 0 41.130667 41.130667 0 0 0 5.688889-49.152z m-202.524444 377.742222a131.470222 131.470222 0 0 0-46.08-85.959111 327.281778 327.281778 0 0 1-54.613333-89.144889c1.137778-101.944889 0-113.777778 0-113.777778 155.306667-80.497778-3.413333-176.355556 0-170.666667 6.257778-19.854222-6.826667-7.111111 0-56.888888a11.946667 11.946667 0 0 1 1.706666-6.826667c-0.568889-9.784889-1.137778-23.893333-2.275555-44.828445-0.568889-19.968-93.297778-5.233778-113.208889-5.233777-173.511111 0-341.333333 17.863111-341.333333 101.091555v59.335111c0 76.686222 116.622222 147.569778 243.484444 172.088889a56.490667 56.490667 0 0 1 29.013333 59.392 235.861333 235.861333 0 0 0-48.924444 100.864 62.577778 62.577778 0 0 0-22.755556 17.066667 156.558222 156.558222 0 0 0-24.462222 90.282667c2.844444 30.208 10.808889 20.593778 11.946667 25.486222a251.278222 251.278222 0 0 0 19.342222 204.288C331.662222 879.217778 472.177778 844.572444 494.364444 800.369778c134.257778 25.144889 128.568889-185.571556 110.364445-241.720889 0 0.113778 11.946667-2.275556 9.671111-53.76z m-98.986667-523.377778c2.275556 41.813333 2.275556-0.967111 0 0.113778z"  horiz-adv-x="1024" />

    
    <glyph glyph-name="zj" unicode="&#59164;" d="M961.422222 252.302222l-156.444444 123.847111a13.141333 13.141333 0 0 1-14.222222 2.844445 12.686222 12.686222 0 0 1-7.964445-12.174222v-72.021334c-190.008889-5.12-289.564444-144.725333-229.831111-357.205333-8.533333 139.320889 62.008889 249.799111 229.831111 249.799111v-67.697778a12.970667 12.970667 0 0 1 7.964445-12.288 11.832889 11.832889 0 0 1 4.551111-0.910222 14.222222 14.222222 0 0 1 9.671111 3.925333l156.444444 123.164445a13.312 13.312 0 0 1 0 18.716444z m-415.857778 9.102222a38.798222 38.798222 0 0 0-25.6 59.392 265.614222 265.614222 0 0 1 46.648889 95.459556 131.470222 131.470222 0 0 1 46.08 85.959111c2.275556 51.484444-9.671111 53.873778-9.671111 53.873778 18.204444 56.149333 23.893333 266.865778-110.364444 241.720889C470.471111 842.012444 329.955556 876.657778 264.533333 758.897778a251.278222 251.278222 0 0 1-19.342222-204.288c-1.137778-4.892444-9.102222 4.721778-11.946667-25.486222a156.558222 156.558222 0 0 1 24.462223-90.282667 62.577778 62.577778 0 0 1 22.755555-17.066667 235.861333 235.861333 0 0 1 48.924445-100.864 56.490667 56.490667 0 0 0-29.013334-59.392C173.511111 236.999111 56.888889 166.115556 56.888889 89.429333v-59.335111c0-83.228444 167.822222-101.091556 341.333333-101.091555 19.911111 0 36.977778-1.251556 56.888889 0a332.060444 332.060444 0 0 0 56.888889 284.444444 174.478222 174.478222 0 0 0 53.475556 43.747556l-19.911112 4.323555z m0 0"  horiz-adv-x="1024" />

    
    <glyph glyph-name="qianyue" unicode="&#59165;" d="M1012.416 352.512l-250.048-325.952a71.232 71.232 0 0 0-93.44-15.04 57.6 57.6 0 0 0-16.512 85.248L902.4 422.4a71.296 71.296 0 0 0 93.568 14.976 57.6 57.6 0 0 0 16.448-84.864zM448-127.488H128a128 128 0 0 0-128 128V768a128 128 0 0 0 128 128h576a128 128 0 0 0 128-128v-320l-384-511.616v-64z m-304.064 256L384 128c2.496 1.984 0-26.496 0 0a226.176 226.176 0 0 0 0 64H128a427.392 427.392 0 0 0 0-64 72.832 72.832 0 0 0 15.808 0zM128 384h448a359.936 359.936 0 0 0 0 64c0 26.496 26.496 0 0 0H128c1.472-1.984 0-37.504 0-64s11.52-6.016 0 0z m576 320H128a354.496 354.496 0 0 0 0-64c0-56.512 9.472 4.032 0 0h576c16.512 1.984 0-26.496 0 0a232.832 232.832 0 0 0 0 64zM619.904 32a27.776 27.776 0 0 1 8.704-42.368l57.984-35.008a39.168 39.168 0 0 1 49.344 7.552l-20.352-24.96L576.384-128l23.232 134.848z"  horiz-adv-x="1024" />

    


  </font>
</defs>
</svg>
